# xmcd CD database file
#
# Track frame offsets:
#	150
#	18970
#	41618
#	67952
#	91073
#	107691
#	124091
#	142257
#	161837
#	186181
#	209507
#	228707
#	238129
#	254276
#
# Disc length: 3817 seconds
#
# Revision: 0
# Processed by: cddbd v1.5.1PL2 Copyright (c) Steve Scherf et al.
# Submitted via: CDex 1.51
#
DISCID=c80ee70e
DTITLE=Daniel Carlomagno - Sem nome
DYEAR=2005
DGENRE=New Age
TTITLE0=Na Minha Cabeça
TTITLE1=Minha Casa
TTITLE2=Machina
TTITLE3=Acontece Que Ela Tem Namorado
TTITLE4=Duas Solidões
TTITLE5=Antigas Novidades
TTITLE6=Esse Nosso Amor
TTITLE7=Flores Na Varanda
TTITLE8=O Inevitavel
TTITLE9=Simples Desejo
TTITLE10=Procura
TTITLE11=Marina Na Escola
TTITLE12=Assim Que Se Faz
TTITLE13=De Volta ao Começo
EXTD=YEAR: 2005
EXTT0=
EXTT1=
EXTT2=
EXTT3=
EXTT4=
EXTT5=
EXTT6=
EXTT7=
EXTT8=
EXTT9=
EXTT10=
EXTT11=
EXTT12=
EXTT13=
PLAYORDER=
